<svg width="28" height="29" viewBox="0 0 28 29" fill="none" xmlns="http://www.w3.org/2000/svg">
<path d="M27.6471 26.2035L19.6135 18.1576C21.1973 16.2566 22.1498 13.8274 22.1498 11.1741C22.1498 5.12097 17.1862 0.199219 11.0806 0.199219C4.9751 0.199219 0 5.12671 0 11.1798C0 17.233 4.96362 22.1547 11.0692 22.1547C13.6629 22.1547 16.05 21.2645 17.9436 19.7771L26.0059 27.846C26.4765 28.3169 27.1766 28.3169 27.6471 27.846C28.1176 27.3751 28.1176 26.6745 27.6471 26.2035ZM2.3527 11.1798C2.3527 6.42463 6.26622 2.55959 11.0692 2.55959C15.8721 2.55959 19.7856 6.42463 19.7856 11.1798C19.7856 15.935 15.8721 19.8001 11.0692 19.8001C6.26622 19.8001 2.3527 15.9293 2.3527 11.1798Z" fill="black"/>
</svg>
