<svg width="61" height="23" viewBox="0 0 61 23" fill="none" xmlns="http://www.w3.org/2000/svg">
<path d="M44.2083 8.8721H41.9083V16.6341C41.9065 16.7058 41.8769 16.7741 41.8258 16.8244C41.7747 16.8748 41.7061 16.9033 41.6343 16.9041H39.8643C39.7926 16.9033 39.7239 16.8748 39.6728 16.8244C39.6217 16.7741 39.5921 16.7058 39.5903 16.6341V8.8721H37.2743C37.2058 8.87376 37.1387 8.85188 37.0843 8.8101C37.0585 8.78618 37.0377 8.75729 37.0233 8.72516C37.0088 8.69303 37.001 8.65832 37.0003 8.6231V7.2521C36.9984 7.2165 37.0051 7.18095 37.0197 7.14843C37.0343 7.1159 37.0564 7.08734 37.0843 7.0651C37.1085 7.04009 37.1385 7.02136 37.1716 7.01056C37.2047 6.99975 37.24 6.99719 37.2743 7.0031H44.2083C44.2427 7.00122 44.2771 7.00619 44.3096 7.01772C44.3421 7.02926 44.3719 7.04713 44.3974 7.0703C44.4229 7.09346 44.4435 7.12146 44.4581 7.15268C44.4727 7.18389 44.4809 7.21768 44.4823 7.2521V8.6221C44.481 8.65661 44.4729 8.69051 44.4584 8.72184C44.4439 8.75316 44.4232 8.78128 44.3977 8.80455C44.3722 8.82783 44.3423 8.84579 44.3098 8.85738C44.2773 8.86898 44.2428 8.87398 44.2083 8.8721V8.8721Z" fill="white"/>
<g clip-path="url(#clip0_430_150)">
<path d="M51.027 16.971C50.1195 17.0987 49.2033 17.1542 48.287 17.137C46.538 17.137 44.999 16.701 44.999 14.272V9.84805C44.999 7.41905 46.559 7.00305 48.308 7.00305C49.2173 6.98587 50.1266 7.04138 51.027 7.16905C51.217 7.19005 51.301 7.26905 51.301 7.43905V8.68605C51.2992 8.75777 51.2696 8.826 51.2185 8.87636C51.1674 8.92673 51.0988 8.95529 51.027 8.95605H48.182C47.55 8.95605 47.318 9.16405 47.318 9.87005V11.07H50.918C50.9898 11.0708 51.0584 11.0994 51.1095 11.1497C51.1606 11.2001 51.1902 11.2683 51.192 11.34V12.607C51.1902 12.6788 51.1606 12.747 51.1095 12.7974C51.0584 12.8477 50.9898 12.8763 50.918 12.877H47.318V14.289C47.318 14.974 47.55 15.203 48.182 15.203H51.027C51.0988 15.2038 51.1674 15.2324 51.2185 15.2827C51.2696 15.3331 51.2992 15.4013 51.301 15.473V16.719C51.301 16.867 51.217 16.95 51.027 16.971Z" fill="white"/>
</g>
<g clip-path="url(#clip1_430_150)">
<path d="M60.662 16.9071H58.512C58.4378 16.9164 58.3626 16.901 58.2979 16.8635C58.2333 16.8259 58.1827 16.7682 58.154 16.6991L56.278 13.7921L54.593 16.6341C54.509 16.8001 54.403 16.9041 54.256 16.9041H52.256C52.2298 16.9072 52.2032 16.9051 52.1778 16.8979C52.1524 16.8907 52.1287 16.8786 52.108 16.8621C52.0875 16.844 52.0713 16.8217 52.0604 16.7966C52.0495 16.7716 52.0443 16.7444 52.045 16.7171C52.045 16.6751 52.066 16.6551 52.066 16.6341L54.995 11.8171L52.021 7.25213C52.0043 7.22787 51.9968 7.19842 52 7.16913C52.0012 7.14372 52.0079 7.11887 52.0196 7.09627C52.0313 7.07367 52.0477 7.05384 52.0677 7.0381C52.0877 7.02237 52.1108 7.01111 52.1355 7.00508C52.1603 6.99904 52.186 6.99838 52.211 7.00313H54.424C54.572 7.00313 54.677 7.12813 54.761 7.25213L56.489 9.95213L58.175 7.25213C58.2043 7.18464 58.2509 7.12607 58.31 7.08235C58.3692 7.03863 58.4389 7.0113 58.512 7.00313H60.512C60.5619 6.99747 60.6121 7.01173 60.6516 7.0428C60.6911 7.07388 60.7167 7.11926 60.723 7.16913C60.723 7.19013 60.702 7.23113 60.702 7.25213L57.752 11.8621L60.834 16.6341C60.8573 16.672 60.8717 16.7148 60.876 16.7591C60.8652 16.806 60.8373 16.8472 60.7977 16.8746C60.7581 16.902 60.7097 16.9136 60.662 16.9071V16.9071Z" fill="white"/>
</g>
<path d="M33.878 7.00048C33.8285 6.99705 33.7795 7.01214 33.7405 7.04281C33.7015 7.07349 33.6753 7.11757 33.667 7.16648L31.707 14.3305C31.686 14.4755 31.644 14.5385 31.517 14.5385C31.39 14.5385 31.348 14.4765 31.327 14.3305L29.368 7.16748C29.3596 7.11857 29.3334 7.07449 29.2945 7.04381C29.2555 7.01314 29.2065 6.99805 29.157 7.00148H27.219C27.1861 6.99973 27.1532 7.00644 27.1237 7.02097C27.0941 7.0355 27.0687 7.05737 27.05 7.08448C27.028 7.10533 27.0123 7.132 27.0049 7.16139C26.9975 7.19078 26.9985 7.22167 27.008 7.25048C27.008 7.25048 29.408 15.4735 29.432 15.5565C29.5637 15.9991 29.8418 16.3839 30.2208 16.6479C30.5998 16.9118 31.0571 17.0393 31.518 17.0095C31.9771 17.0308 32.4305 16.9 32.8077 16.6372C33.1849 16.3745 33.4648 15.9946 33.604 15.5565C33.646 15.4565 35.985 7.25048 35.985 7.25048C35.9944 7.22167 35.9955 7.19078 35.988 7.16139C35.9806 7.132 35.965 7.10533 35.943 7.08448C35.8989 7.03683 35.8386 7.00725 35.774 7.00148L33.878 7.00048Z" fill="white"/>
<path d="M24.9983 0.000485239H4.83034C4.47417 0.000636043 4.12407 0.0927736 3.81397 0.267972C3.50387 0.44317 3.24428 0.695489 3.06034 1.00049C2.87557 1.30118 2.77264 1.64497 2.76176 1.99774C2.75089 2.3505 2.83244 2.69997 2.99834 3.01149L5.01934 6.79049H1.35234C1.1233 6.78992 0.897756 6.84662 0.696213 6.95542C0.49467 7.06423 0.323523 7.22169 0.198337 7.41349C0.0771737 7.6085 0.00909392 7.83179 0.000849562 8.06123C-0.0073948 8.29067 0.0444827 8.51828 0.151337 8.72149L6.64234 20.8065C6.75679 21.0199 6.92697 21.1983 7.13476 21.3226C7.34256 21.4469 7.58018 21.5126 7.82234 21.5126C8.06449 21.5126 8.30212 21.4469 8.50991 21.3226C8.7177 21.1983 8.88788 21.0199 9.00234 20.8065L10.7723 17.5255L12.9853 21.6575C13.1675 21.9838 13.4335 22.2555 13.7558 22.4447C14.0782 22.6339 14.4451 22.7336 14.8188 22.7336C15.1926 22.7336 15.5595 22.6339 15.8818 22.4447C16.2041 22.2555 16.4701 21.9838 16.6523 21.6575L26.7693 2.90749C26.9359 2.60669 27.0179 2.26644 27.0068 1.9228C26.9958 1.57916 26.8919 1.24492 26.7063 0.955485C26.5328 0.658368 26.2828 0.413118 25.9825 0.245187C25.6822 0.0772568 25.3424 -0.00723348 24.9983 0.000485239V0.000485239ZM15.9783 7.91149L11.5523 16.0925C11.4785 16.2343 11.3661 16.3524 11.2281 16.4333C11.0902 16.5141 10.9322 16.5544 10.7723 16.5495C10.6133 16.55 10.4571 16.5079 10.3199 16.4275C10.1827 16.3472 10.0696 16.2315 9.99234 16.0925L5.62934 7.99249C5.56452 7.86921 5.53268 7.73127 5.53689 7.59205C5.5411 7.45284 5.58123 7.31708 5.65337 7.19794C5.72552 7.07881 5.82723 6.98034 5.94865 6.9121C6.07007 6.84387 6.20706 6.80817 6.34634 6.80849H15.2823C15.4128 6.80345 15.5423 6.83355 15.6571 6.89565C15.772 6.95774 15.8681 7.04956 15.9353 7.16149C16.0143 7.26893 16.0604 7.39698 16.068 7.53011C16.0757 7.66324 16.0445 7.79572 15.9783 7.91149V7.91149Z" fill="white"/>
<defs>
<clipPath id="clip0_430_150">
<rect width="6.301" height="10.141" fill="white" transform="translate(45 7)"/>
</clipPath>
<clipPath id="clip1_430_150">
<rect width="8.873" height="9.911" fill="white" transform="translate(52 7)"/>
</clipPath>
</defs>
</svg>
